# xmcd
#
# Track frame offsets: 
#        150
#        19771
#        34747
#        53939
#        76387
#        94505
#        115264
#        132892
#        148159
#        167621
#
# Disc length: 2534 seconds
#
# Revision: 0
# Processed by: cddbd v1.5.2PL0 Copyright (c) Steve Scherf et al.
# Submitted via: ExactAudioCopy v1.0b3
#
DISCID=7e09e40a
DTITLE=cristian castro - mi amigo el principe
DYEAR=2011
DGENRE=Latin
TTITLE0=lo dudo
TTITLE1=preso
TTITLE2=desesperado
TTITLE3=gotas de fuego
TTITLE4=insaciable amante
TTITLE5=tu primera vez
TTITLE6=boenos dias amor
TTITLE7=buscando una sonrisa
TTITLE8=me basta
TTITLE9=vamos a darnos tiempo
EXTD=
EXTT0=
EXTT1=
EXTT2=
EXTT3=
EXTT4=
EXTT5=
EXTT6=
EXTT7=
EXTT8=
EXTT9=
PLAYORDER=
